# xmcd
#
# Track frame offsets:
#	150
#	10310
#	25703
#	39056
#	54205
#	65751
#	77872
#	92520
#	110720
#	125926
#	139823
#	153275
#	170612
#	183959
#	201616
#	216508
#	227366
#	239408
#	260373
#	268900
#	281121
#	294467
#	306883
#	316828
#
# Disc length: 4418 seconds
#
# Revision: 1
# Processed by: cddbd v1.5.2PL0 Copyright (c) Steve Scherf et al.
# Submitted via: audiograbber 1.83.01
#
DISCID=62114018
DTITLE=Western Heart - Western Heart 088
DYEAR=2008
DGENRE=Country
TTITLE0=If Teardrops Were Pennies  - Erin Hay
TTITLE1=Maman - Hal Willis
TTITLE2=Hear The Angels Crying  - The Shady Creek Outlaws
TTITLE3=c - Jim and Linda Davis
TTITLE4=Get A Job  - Jim Marlboro and The Cruisers
TTITLE5=Raising The Price Of Gas - Joy Marie Anderson
TTITLE6=Those Unemployment Blues - Mike Andersen
TTITLE7=Beatiful Lady  - Don Allen
TTITLE8=Saterday Morning  - Stephen Sherpherd
TTITLE9=Dandelion Wine  - Phillip Clarkson
TTITLE10=Something In The Air  - The Matekies
TTITLE11=You Can´t Tella Vet By Looking  - Charley Connor
TTITLE12=Drinking Feeling  - James Colburn
TTITLE13=How Does A Man Cry  - Stan Cox
TTITLE14=Samba Havaiana  - Ambrogio Gaigher
TTITLE15=Piano From A Bar Room  - Dixon De Vore
TTITLE16=Pretty Please  - Mike Runnels
TTITLE17=Girl Why  - Tumbleweed Jumnction
TTITLE18=Call It Kissing Time  - Ernie Ashworth
TTITLE19=My Blue Tears  - Perley Curtis
TTITLE20=Run That By Me One More Time - Joni Compretta
TTITLE21=Have You Heard The Name Of Jesus  - Jim and Linda Davis
TTITLE22=The Heaven Express  - Judy Welden
TTITLE23=Jesus Lit My Candle  - Irma Young
EXTD=
EXTT0=
EXTT1=
EXTT2=
EXTT3=
EXTT4=
EXTT5=
EXTT6=
EXTT7=
EXTT8=
EXTT9=
EXTT10=
EXTT11=
EXTT12=
EXTT13=
EXTT14=
EXTT15=
EXTT16=
EXTT17=
EXTT18=
EXTT19=
EXTT20=
EXTT21=
EXTT22=
EXTT23=
PLAYORDER=
